<svg xmlns="http://www.w3.org/2000/svg" data-name="Layer 1" viewBox="0 0 512 512"><g data-name="&lt;Group&gt;"><g data-name="&lt;Group&gt;"><g data-name="&lt;Group&gt;"><path fill="#fdc75b" d="M442.55,45.4V401.62c0,9.61-8.21,17.4-18.35,17.4H103.7a35.1,35.1,0,0,0-24.22,9.52,31.562,31.562,0,0,0-10.03,22.97V45.41C69.45,35.79,77.67,28,87.8,28H424.2C434.34,28,442.55,35.79,442.55,45.4Zm-75.71,92.44-1.91-61.99a7.4,7.4,0,0,0-2.45-5.23,8.271,8.271,0,0,0-5.61-2.15,7.884,7.884,0,0,0-8.04,7.18l-3.37,54.19H330.1l-3.36-54.19a7.893,7.893,0,0,0-8.05-7.18h-.2a7.886,7.886,0,0,0-8.05,7.18l-3.37,54.19H291.71l-3.37-54.19a8.1,8.1,0,0,0-16.11.2l-1.91,61.99c0,27.43,15.09,54.07,35.63,62.06h.01l-7.1,144.49c-.01.3-.02.6-.02.9,0,10.3,8.8,18.74,19.74,18.74,11.27,0,20.26-8.94,19.73-19.64l-7.1-144.49C351.75,191.91,366.84,165.27,366.84,137.84ZM240.22,300.52c0-29.31-14.86-53.98-35.06-61.3l.01-.03L212.42,91.6c.01-.3.02-.59.02-.88,0-10.3-8.79-18.76-19.75-18.76-11.27,0-20.25,8.95-19.73,19.64l7.25,147.59.01.03c-20.2,7.32-35.06,31.99-35.06,61.3,0,35.08,21.28,63.51,47.53,63.51S240.22,335.6,240.22,300.52Z" data-name="&lt;Compound Path&gt;"/></g><g data-name="&lt;Group&gt;"><path fill="#ed664c" d="M418.09,419.02V466.6c0,9.61-8.22,17.4-18.35,17.4H103.7c-18.92,0-34.25-14.55-34.25-32.49a31.562,31.562,0,0,1,10.03-22.97,35.1,35.1,0,0,1,24.22-9.52Z" data-name="&lt;Path&gt;"/></g><g data-name="&lt;Group&gt;"><path fill="#fdc75b" d="M331.21,199.9a34.307,34.307,0,0,1-25.25,0h-.01c-20.54-7.99-35.63-34.63-35.63-62.06l1.91-61.99a8.1,8.1,0,0,1,16.11-.2l3.37,54.19h15.36l3.37-54.19a7.886,7.886,0,0,1,8.05-7.18h.2a7.893,7.893,0,0,1,8.05,7.18l3.36,54.19h15.36l3.37-54.19a7.884,7.884,0,0,1,8.04-7.18,8.271,8.271,0,0,1,5.61,2.15,7.4,7.4,0,0,1,2.45,5.23l1.91,61.99C366.84,165.27,351.75,191.91,331.21,199.9Z" data-name="&lt;Path&gt;"/></g><g data-name="&lt;Group&gt;"><path fill="#fdc75b" d="M338.31,344.39c.53,10.7-8.46,19.64-19.73,19.64-10.94,0-19.74-8.44-19.74-18.74,0-.3.01-.6.02-.9l7.1-144.49a34.307,34.307,0,0,0,25.25,0Z" data-name="&lt;Path&gt;"/></g><g data-name="&lt;Group&gt;"><path fill="#fdc75b" d="M205.16,239.22c20.2,7.32,35.06,31.99,35.06,61.3,0,35.08-21.28,63.51-47.53,63.51s-47.53-28.43-47.53-63.51c0-29.31,14.86-53.98,35.06-61.3a36.286,36.286,0,0,1,24.94,0Z" data-name="&lt;Path&gt;"/></g><g data-name="&lt;Group&gt;"><path fill="#fdc75b" d="M212.44,90.72c0,.29-.01.58-.02.88l-7.25,147.59-.01.03a36.286,36.286,0,0,0-24.94,0l-.01-.03L172.96,91.6c-.52-10.69,8.46-19.64,19.73-19.64C203.65,71.96,212.44,80.42,212.44,90.72Z" data-name="&lt;Path&gt;"/></g></g><g data-name="&lt;Group&gt;"><path d="M424.2,18H87.8C72.168,18,59,30.3,59,45.41v406.1C59,474.938,79.3,494,103.7,494H399.74c15.632,0,28.26-12.292,28.26-27.4V428.763c14-1.838,25-13.31,25-27.143V45.4C453,30.292,439.832,18,424.2,18ZM408,466.6c0,4.081-3.656,7.4-8.26,7.4H103.7c-13.371,0-24.25-10.089-24.25-22.49a21.564,21.564,0,0,1,6.911-15.724A25.043,25.043,0,0,1,103.7,429H408Zm25-64.98c0,4.08-4.2,7.38-8.8,7.38H103.7c-8.738,0-16.7,2.442-24.7,6.954V45.41C79,41.324,83.2,38,87.8,38H424.2c4.6,0,8.8,3.319,8.8,7.4Z" data-name="&lt;Compound Path&gt;"/><path d="M215.487 232.966L222.408 92.09c0-.049.005-.1.006-.149.014-.416.026-.819.026-1.221 0-15.859-13.346-28.76-29.75-28.76a30.309 30.309 0 0 0-21.884 9.279 28.02 28.02 0 0 0-7.834 20.851l6.921 140.877c-20.766 11.422-34.733 37.99-34.733 67.553 0 19.111 5.652 37.189 15.915 50.9C161.986 366 176.766 374.03 192.69 374.03s30.7-8.029 41.615-22.608c10.263-13.713 15.915-31.791 15.915-50.9C250.22 270.957 236.253 244.389 215.487 232.966zm-30.2-147.933a10.224 10.224 0 0 1 7.4-3.073c5.376 0 9.75 3.93 9.75 8.76 0 .151-.006.3-.011.459L195.75 227.135a46.291 46.291 0 0 0-6.12 0L182.948 91.113A8.2 8.2 0 0 1 185.288 85.033zm33 254.4c-7.043 9.41-16.135 14.592-25.6 14.592s-18.56-5.182-25.6-14.592c-7.691-10.277-11.927-24.1-11.927-38.918 0-24.483 11.706-45.825 28.469-51.9a26.3 26.3 0 0 1 9.061-1.422 28.538 28.538 0 0 1 9.061 1.8h0c16.761 6 28.467 27.227 28.467 51.709C230.22 315.529 225.984 329.161 218.293 339.438zM374.924 75.509a17.268 17.268 0 0 0-5.682-12.256A18.232 18.232 0 0 0 356.99 58.47l-.312 0A17.926 17.926 0 0 0 338.87 74.76c-.008.09-.015.179-.02.269l-1.066 17.139-1.063-17.137c-.006-.1-.013-.2-.023-.3a18.157 18.157 0 0 0-17.818-16.5c-.094 0-.191-.233-.285-.233h-.009a18.269 18.269 0 0 0-18.107 16.525c-.007.09-.014.3-.02.387L299.39 92.165 298.32 75c0-.089-.012-.164-.02-.253A17.924 17.924 0 0 0 280.482 58.46c-.1 0-.206.005-.309.006A17.846 17.846 0 0 0 262.235 75.54l-1.91 61.991c0 .1 0 .206 0 .308 0 28.894 14.5 56.25 35.326 68.18L288.872 343.9c0 .056-.006.155-.008.209-.013.4-.024.789-.024 1.183 0 15.848 13.341 28.74 29.74 28.74a30.313 30.313 0 0 0 21.9-9.289A27.99 27.99 0 0 0 348.3 343.9l-6.776-137.884c20.822-11.932 35.318-39.284 35.318-68.174 0-.1 0-.205 0-.308zM325.993 350.954a10.235 10.235 0 0 1-7.413 3.076c-5.371 0-9.74-3.921-9.74-8.74 0-.153.006-.306.012-.487l6.516-132.612c1.078.079 2.156.13 3.236.13s2.134-.051 3.2-.128l6.518 132.691A8.18 8.18 0 0 1 325.993 350.954zM327.53 190.6a24.241 24.241 0 0 1-17.894 0c-.088-.035-.176-.069-.264-.1-16.273-6.48-29-29.466-29.052-52.513l.622-20.187.787 12.74A10.07 10.07 0 0 0 291.71 140h15.36a10.07 10.07 0 0 0 9.981-9.459l1.536-24.75 1.532 24.768A10.051 10.051 0 0 0 330.1 140h15.36a10.07 10.07 0 0 0 9.981-9.459l.78-12.59.619 20.057C356.785 161.151 343.954 184.213 327.53 190.6z" data-name="&lt;Compound Path&gt;"/></g></g></svg>